<svg xmlns="http://www.w3.org/2000/svg" xmlns:xlink="http://www.w3.org/1999/xlink" xmlns:fi="http://pattern.flaticon.com/" x="0" y="0" width="700" height="350" viewBox="0 0 700 350"><rect x="0px" y="0px" width="100%" height="100%" opacity="1" fill="#ffffff"/><defs><g transform="matrix(0.17578125 0 0 0.17578125 305 305)" id="L1_38"><path d="m497 0h-482c-8.401 0-15 6.599-15 15v482c0 8.401 6.599 15 15 15h482c8.401 0 15-6.599 15-15v-482c0-8.401-6.599-15-15-15z" fill="#fff5f5"/><path d="m512 15v482c0 8.401-6.599 15-15 15h-241v-512h241c8.401 0 15 6.599 15 15z" fill="#f7f0eb"/><path d="m450.399 130.901c-1.8-5.4-6.599-9.3-12.299-10.201l-43.801-6.299-18.3-39.6c-2.401-5.4-7.5-8.701-13.5-8.701-.3 0-.899 0-1.5.3-4.2.3-9.6 3.6-12.001 8.101l-18.9 39-46.5 7.2c-5.4.901-10.199 4.801-11.999 10.201-1.501 5.4 0 11.4 3.9 15.3l31.8 31.199-7.5 43.801c-.901 5.7 1.5 11.398 5.999 14.7 4.801 3.3 10.801 3.6 15.901 1.199l39.3-20.7 39.3 20.7c5.099 2.401 11.1 2.1 15.901-1.199 4.499-3.301 6.899-9 5.999-14.7l-7.5-43.801 31.8-31.199c4.201-3.901 5.402-9.902 3.9-15.301z" fill="#ffda2d"/><path d="m436 271h-150c-8.401 0-15 6.599-15 15v150c0 8.401 6.599 15 15 15h150c8.401 0 15-6.599 15-15v-150c0-8.401-6.599-15-15-15z" fill="#4bb9ec"/><path d="m151 61c-49.501 0-90 40.499-90 90s40.499 90 90 90 90-40.499 90-90-40.499-90-90-90z" fill="#ff7cb9"/><path d="m227.5 307.599-69-39.899c-2.1-1.5-4.799-2.1-7.5-2.1s-5.4.601-7.5 2.1l-69 39.899c-4.501 2.701-7.5 7.5-7.5 12.902v79.799c0 5.4 2.999 10.201 7.5 12.9l69 39.901c2.401 1.199 4.799 1.8 7.5 1.8s5.099-.601 7.5-1.8l69-39.901c4.501-2.699 7.5-7.5 7.5-12.9v-79.799c0-5.402-2.999-10.201-7.5-12.902z" fill="#54e360"/></g><path d="M165,0C74.019,0,0,74.019,0,165s74.019,165,165,165c90.982,0,165-74.019,165-165S255.982,0,165,0z" transform="matrix(0.03030303120613098 0 0 0.03030303120613098 345 82.5)" id="L1_42" fill="#b79c8d"/><g transform="matrix(0.078125 0 0 0.078125 242.5 67.5)" id="L1_40"><path d="m360.399 368.5-104.399 52.5-104.7-52.2c-52.5 18.3-90.3 69.399-90.3 128.2 0 8.401 6.599 15 15 15h180 180c8.401 0 15-6.599 15-15 0-58.801-37.8-109.9-90.601-128.5z" fill="#54e360"/><path d="m451 497c0-58.801-37.8-109.9-90.601-128.5l-104.399 52.5v91h180c8.401 0 15-6.599 15-15z" fill="#00cc71"/><path d="m331 361.901-20.7 30h-54.3-45l-30-30c-10.201 1.199-20.4 3.3-29.7 6.899 1.199 11.7 5.099 23.101 11.4 33.6 18.3 30 54 48.6 93.3 48.6 37.2 0 70.8-16.199 90-43.5 8.401-12.299 13.2-25.199 14.399-39-9.3-3.3-19.198-5.4-29.399-6.599z" fill="#fff5f5"/><path d="m346 407.5c8.401-12.299 13.2-25.199 14.399-39-9.3-3.3-19.199-5.4-29.399-6.599l-20.7 30h-54.3v59.099c37.2 0 70.8-16.199 90-43.5z" fill="#f7f0eb"/><path d="m316 361h-5.7l-4.501-23.101h-49.799-49.799l-4.501 23.101h-5.7c-5.099 0-10.201.3-15 .901.3 10.199 3.6 18.898 7.5 24.899 12.299 20.7 39 34.2 67.5 34.2 27.001 0 52.2-11.7 65.4-30.901 4.801-6.899 9.3-16.199 9.6-28.198-4.799-.601-9.901-.901-15-.901z" fill="#ffbfab"/><path d="m321.4 390.099c4.801-6.899 9.3-16.199 9.6-28.198-4.799-.601-9.901-.901-15-.901h-5.7l-4.501-23.101h-49.799v83.101c27.001 0 52.2-11.7 65.4-30.901z" fill="#ffa78f"/><path d="m406 271h-45v-90h45c24.853 0 45 20.147 45 45 0 24.853-20.147 45-45 45z" fill="#ffa78f"/><path d="m151 271h-45c-24.853 0-45-20.147-45-45 0-24.853 20.147-45 45-45h45z" fill="#ffbfab"/><path d="m391 121v105c0 74.7-60.3 135-135 135s-135-60.3-135-135v-105z" fill="#ffcebf"/><path d="m391 121v105c0 74.7-60.3 135-135 135v-240z" fill="#ffbfab"/><circle cx="195" cy="225" r="15" fill="#596c76"/><circle cx="315" cy="225" r="15" fill="#465a61"/><path d="m301 256c0 24.901-20.099 45-45 45s-45-20.099-45-45c0-8.401 6.599-15 15-15s15 6.599 15 15 6.599 15 15 15 15-6.599 15-15 6.599-15 15-15 15 6.599 15 15z" fill="#ffbfab"/><path d="m301 256c0 24.901-20.099 45-45 45v-30c8.401 0 15-6.599 15-15s6.599-15 15-15 15 6.599 15 15z" fill="#ffa78f"/><path d="m421 166c0 8.401-6.599 15-15 15h-30c-28.5 0-53.699-16.199-66.301-39.901-14.399 15.901-32.999 27.9-53.699 34.201-11.7 3.9-24.3 5.7-37.2 5.7h-112.8c-8.401 0-15-6.599-15-15 0-90.3 73.2-166 165-166s165 75.399 165 166z" fill="#ffda2d"/><path d="m421 166c0 8.401-6.599 15-15 15h-30c-28.5 0-53.699-16.199-66.301-39.901-14.399 15.901-32.999 27.9-53.699 34.201v-175.3c91.8 0 165 75.399 165 166z" fill="#fdbf00"/></g><g transform="matrix(-0.1171875 0 0 0.1171875 117.5 57.5)" id="L1_41"><path d="m497 0h-482c-8.401 0-15 6.599-15 15v482c0 8.401 6.599 15 15 15h482c8.401 0 15-6.599 15-15v-482c0-8.401-6.599-15-15-15z" fill="#fff5f5"/><path d="m512 15v482c0 8.401-6.599 15-15 15h-241v-512h241c8.401 0 15 6.599 15 15z" fill="#f7f0eb"/><path d="m450.399 130.901c-1.8-5.4-6.599-9.3-12.299-10.201l-43.801-6.299-18.3-39.6c-2.401-5.4-7.5-8.701-13.5-8.701-.3 0-.899 0-1.5.3-4.2.3-9.6 3.6-12.001 8.101l-18.9 39-46.5 7.2c-5.4.901-10.199 4.801-11.999 10.201-1.501 5.4 0 11.4 3.9 15.3l31.8 31.199-7.5 43.801c-.901 5.7 1.5 11.398 5.999 14.7 4.801 3.3 10.801 3.6 15.901 1.199l39.3-20.7 39.3 20.7c5.099 2.401 11.1 2.1 15.901-1.199 4.499-3.301 6.899-9 5.999-14.7l-7.5-43.801 31.8-31.199c4.201-3.901 5.402-9.902 3.9-15.301z" fill="#ffda2d"/><path d="m436 271h-150c-8.401 0-15 6.599-15 15v150c0 8.401 6.599 15 15 15h150c8.401 0 15-6.599 15-15v-150c0-8.401-6.599-15-15-15z" fill="#4bb9ec"/><path d="m151 61c-49.501 0-90 40.499-90 90s40.499 90 90 90 90-40.499 90-90-40.499-90-90-90z" fill="#ff7cb9"/><path d="m227.5 307.599-69-39.899c-2.1-1.5-4.799-2.1-7.5-2.1s-5.4.601-7.5 2.1l-69 39.899c-4.501 2.701-7.5 7.5-7.5 12.902v79.799c0 5.4 2.999 10.201 7.5 12.9l69 39.901c2.401 1.199 4.799 1.8 7.5 1.8s5.099-.601 7.5-1.8l69-39.901c4.501-2.699 7.5-7.5 7.5-12.9v-79.799c0-5.402-2.999-10.201-7.5-12.902z" fill="#54e360"/></g><path d="M165,0C74.019,0,0,74.019,0,165s74.019,165,165,165c90.982,0,165-74.019,165-165S255.982,0,165,0z" transform="matrix(0.03030303120613098 0 0 0.03030303120613098 82.5 257.5)" id="L1_43" fill="#6e842e"/><g transform="matrix(0.0390625 0 0 0.0390625 340 165)" id="L1_44"><path d="m91.002 497c0 8.291 6.709 15 15 15h45l30-51-30-77.147c-36.142 24.249-60 66.446-60 113.147z" fill="#ffbfab"/><path d="m421.002 383.853-30 75.271 30 52.875h45c8.291 0 15-6.709 15-15 0-46.7-23.859-88.897-60-113.146z" fill="#ffa78f"/><path d="m384.701 367.332-54.476 43.414h-44.224-44.224l-54.472-43.416c-12.946 3.909-25.311 9.148-36.304 16.523v128.147h135 135v-128.147c-10.991-7.375-23.356-12.614-36.3-16.521z" fill="#ff7cb9"/><path d="m421.002 383.853c-10.992-7.375-23.357-12.614-36.301-16.522l-54.476 43.414h-44.224v101.255h135v-128.147z" fill="#ff3980"/><path d="m354.899 361.899-19.708 29.101h-49.189-49.189l-19.702-29.101c-10.322.687-20.24 2.545-29.804 5.431l24.472 73.416c2.036 6.123 7.764 10.254 14.224 10.254h60 60c6.46 0 12.188-4.131 14.224-10.254l24.476-73.414c-9.566-2.888-19.483-4.744-29.804-5.433z" fill="#fff5f5"/><path d="m360.225 440.746 24.476-73.414c-9.564-2.888-19.481-4.744-29.802-5.433l-19.708 29.101h-49.189v60h60c6.46 0 12.187-4.131 14.223-10.254z" fill="#f7f0eb"/><path d="m346.002 361h-5.698l-4.629-23.115h-49.673-49.673l-4.629 23.115h-5.698c-3.045 0-5.896.699-8.892.899l19.702 59.101h49.189 49.189l19.708-59.101c-2.997-.2-5.849-.899-8.896-.899z" fill="#ffbfab"/><path d="m354.899 361.899c-2.997-.2-5.85-.899-8.897-.899h-5.698l-4.629-23.115h-49.673v83.115h49.189z" fill="#ffa78f"/><path d="m139.927 154.091c-29.517-8.013-59.707.483-80.728 22.72-21.021 22.251-27.788 52.866-18.105 81.899l7.251 21.782c6.475 19.409 1.509 40.444-12.949 54.902-4.292 4.292-5.581 10.737-3.252 16.348 2.314 5.61 7.793 9.258 13.857 9.258h29.927c58.579 0 106.392-45.85 108.838-104.37z" fill="#fdbf00"/><path d="m436.002 271h-45v-90h45c24.853 0 45 20.147 45 45 0 24.853-20.148 45-45 45z" fill="#ffa78f"/><path d="m181.002 271h-45c-24.853 0-45-20.147-45-45 0-24.853 20.147-45 45-45h45z" fill="#ffbfab"/><path d="m421.002 121v105c0 74.7-60.3 135-135 135s-135-60.3-135-135v-105z" fill="#ffcebf"/><path d="m421.002 121v105c0 74.7-60.3 135-135 135v-240z" fill="#ffbfab"/><circle cx="226" cy="225" r="15" fill="#596c76"/><circle cx="346" cy="225" r="15" fill="#465a61"/><path d="m331.002 256c0 24.901-20.099 45-45 45s-45-20.099-45-45c0-8.401 6.599-15 15-15s15 6.599 15 15 6.599 15 15 15 15-6.599 15-15 6.599-15 15-15 15 6.599 15 15z" fill="#ffbfab"/><path d="m331.002 256c0 24.901-20.099 45-45 45v-30c8.401 0 15-6.599 15-15s6.599-15 15-15 15 6.599 15 15z" fill="#ffa78f"/><path d="m451.002 166c0 8.401-6.599 15-15 15h-52.8c-38.699 0-74.099-17.701-97.2-47.1-23.101 29.399-58.5 47.1-97.2 47.1h-52.8c-8.401 0-15-6.599-15-15 0-91.199 73.801-166 165-166s165 74.801 165 166z" fill="#ffda2d"/><path d="m451.002 166c0 8.401-6.599 15-15 15h-52.8c-38.699 0-74.099-17.701-97.2-47.1v-133.9c91.199 0 165 74.801 165 166z" fill="#fdbf00"/></g><g transform="matrix(0.0390625 0 0 0.0390625 165 165)" id="L1_45"><path d="m331 75c0 23.699-11.4 45.901-30 60v152c0 8.401-6.599 15-15 15h-60c-8.401 0-15-6.599-15-15v-152c-18.6-14.099-30-36.301-30-60 0-41.4 33.6-75 75-75s75 33.6 75 75z" fill="#fff5f5"/><path d="m286 302h-30v-302c41.4 0 75 33.6 75 75 0 23.699-11.4 45.901-30 60v152c0 8.401-6.599 15-15 15z" fill="#efe2dd"/><path d="m392 287c0 24.901-20.099 45-45 45l-48.701 30h-92.999l-40.3-30c-24.901 0-45-20.099-45-45s20.099-45 45-45h182c24.901 0 45 20.099 45 45z" fill="#54e360"/><path d="m298.299 362h-42.299v-120h91c24.901 0 45 20.099 45 45s-20.099 45-45 45z" fill="#00cc71"/><path d="m452 377c0 24.901-20.099 45-45 45l-39.3 30h-233.601l-29.099-30c-24.901 0-45-20.099-45-45s20.099-45 45-45h302c24.901 0 45 20.099 45 45z" fill="#fff261"/><path d="m452 377c0 24.901-20.099 45-45 45l-39.3 30h-111.7v-120h151c24.901 0 45 20.099 45 45z" fill="#ffda2d"/><path d="m512 467c0 24.901-20.099 45-45 45h-422c-24.901 0-45-20.099-45-45s20.099-45 45-45h422c24.901 0 45 20.099 45 45z" fill="#ff7cb9"/><path d="m512 467c0 24.901-20.099 45-45 45h-211v-90h211c24.901 0 45 20.099 45 45z" fill="#ff3980"/></g><g transform="matrix(-0.1171875 0 0 0.1171875 210.76820223808295 232.5)" id="L1_46"><path d="m91.002 497c0 8.291 6.709 15 15 15h45l30-51-30-77.147c-36.142 24.249-60 66.446-60 113.147z" fill="#ffbfab"/><path d="m421.002 383.853-30 75.271 30 52.875h45c8.291 0 15-6.709 15-15 0-46.7-23.859-88.897-60-113.146z" fill="#ffa78f"/><path d="m384.701 367.332-54.476 43.414h-44.224-44.224l-54.472-43.416c-12.946 3.909-25.311 9.148-36.304 16.523v128.147h135 135v-128.147c-10.991-7.375-23.356-12.614-36.3-16.521z" fill="#ff7cb9"/><path d="m421.002 383.853c-10.992-7.375-23.357-12.614-36.301-16.522l-54.476 43.414h-44.224v101.255h135v-128.147z" fill="#ff3980"/><path d="m354.899 361.899-19.708 29.101h-49.189-49.189l-19.702-29.101c-10.322.687-20.24 2.545-29.804 5.431l24.472 73.416c2.036 6.123 7.764 10.254 14.224 10.254h60 60c6.46 0 12.188-4.131 14.224-10.254l24.476-73.414c-9.566-2.888-19.483-4.744-29.804-5.433z" fill="#fff5f5"/><path d="m360.225 440.746 24.476-73.414c-9.564-2.888-19.481-4.744-29.802-5.433l-19.708 29.101h-49.189v60h60c6.46 0 12.187-4.131 14.223-10.254z" fill="#f7f0eb"/><path d="m346.002 361h-5.698l-4.629-23.115h-49.673-49.673l-4.629 23.115h-5.698c-3.045 0-5.896.699-8.892.899l19.702 59.101h49.189 49.189l19.708-59.101c-2.997-.2-5.849-.899-8.896-.899z" fill="#ffbfab"/><path d="m354.899 361.899c-2.997-.2-5.85-.899-8.897-.899h-5.698l-4.629-23.115h-49.673v83.115h49.189z" fill="#ffa78f"/><path d="m139.927 154.091c-29.517-8.013-59.707.483-80.728 22.72-21.021 22.251-27.788 52.866-18.105 81.899l7.251 21.782c6.475 19.409 1.509 40.444-12.949 54.902-4.292 4.292-5.581 10.737-3.252 16.348 2.314 5.61 7.793 9.258 13.857 9.258h29.927c58.579 0 106.392-45.85 108.838-104.37z" fill="#fdbf00"/><path d="m436.002 271h-45v-90h45c24.853 0 45 20.147 45 45 0 24.853-20.148 45-45 45z" fill="#ffa78f"/><path d="m181.002 271h-45c-24.853 0-45-20.147-45-45 0-24.853 20.147-45 45-45h45z" fill="#ffbfab"/><path d="m421.002 121v105c0 74.7-60.3 135-135 135s-135-60.3-135-135v-105z" fill="#ffcebf"/><path d="m421.002 121v105c0 74.7-60.3 135-135 135v-240z" fill="#ffbfab"/><circle cx="226" cy="225" r="15" fill="#596c76"/><circle cx="346" cy="225" r="15" fill="#465a61"/><path d="m331.002 256c0 24.901-20.099 45-45 45s-45-20.099-45-45c0-8.401 6.599-15 15-15s15 6.599 15 15 6.599 15 15 15 15-6.599 15-15 6.599-15 15-15 15 6.599 15 15z" fill="#ffbfab"/><path d="m331.002 256c0 24.901-20.099 45-45 45v-30c8.401 0 15-6.599 15-15s6.599-15 15-15 15 6.599 15 15z" fill="#ffa78f"/><path d="m451.002 166c0 8.401-6.599 15-15 15h-52.8c-38.699 0-74.099-17.701-97.2-47.1-23.101 29.399-58.5 47.1-97.2 47.1h-52.8c-8.401 0-15-6.599-15-15 0-91.199 73.801-166 165-166s165 74.801 165 166z" fill="#ffda2d"/><path d="m451.002 166c0 8.401-6.599 15-15 15h-52.8c-38.699 0-74.099-17.701-97.2-47.1v-133.9c91.199 0 165 74.801 165 166z" fill="#fdbf00"/></g></defs><g fi:class="KUsePattern"><pattern id="pattern_L1_38" width="350" height="350" patternUnits="userSpaceOnUse"><use xlink:href="#L1_38" x="-350" y="-350"/><use xlink:href="#L1_38" x="0" y="-350"/><use xlink:href="#L1_38" x="350" y="-350"/><use xlink:href="#L1_38" x="-350" y="0"/><use xlink:href="#L1_38" x="0" y="0"/><use xlink:href="#L1_38" x="350" y="0"/><use xlink:href="#L1_38" x="-350" y="350"/><use xlink:href="#L1_38" x="0" y="350"/><use xlink:href="#L1_38" x="350" y="350"/></pattern><rect x="0" y="0" width="100%" height="100%" fill="url(#pattern_L1_38)"/></g><g fi:class="KUsePattern"><pattern id="pattern_L1_42" width="350" height="350" patternUnits="userSpaceOnUse"><use xlink:href="#L1_42" x="-350" y="-350"/><use xlink:href="#L1_42" x="0" y="-350"/><use xlink:href="#L1_42" x="350" y="-350"/><use xlink:href="#L1_42" x="-350" y="0"/><use xlink:href="#L1_42" x="0" y="0"/><use xlink:href="#L1_42" x="350" y="0"/><use xlink:href="#L1_42" x="-350" y="350"/><use xlink:href="#L1_42" x="0" y="350"/><use xlink:href="#L1_42" x="350" y="350"/></pattern><rect x="0" y="0" width="100%" height="100%" fill="url(#pattern_L1_42)"/></g><g fi:class="KUsePattern"><pattern id="pattern_L1_40" width="350" height="350" patternUnits="userSpaceOnUse"><use xlink:href="#L1_40" x="-350" y="-350"/><use xlink:href="#L1_40" x="0" y="-350"/><use xlink:href="#L1_40" x="350" y="-350"/><use xlink:href="#L1_40" x="-350" y="0"/><use xlink:href="#L1_40" x="0" y="0"/><use xlink:href="#L1_40" x="350" y="0"/><use xlink:href="#L1_40" x="-350" y="350"/><use xlink:href="#L1_40" x="0" y="350"/><use xlink:href="#L1_40" x="350" y="350"/></pattern><rect x="0" y="0" width="100%" height="100%" fill="url(#pattern_L1_40)"/></g><g fi:class="KUsePattern"><pattern id="pattern_L1_41" width="350" height="350" patternUnits="userSpaceOnUse"><use xlink:href="#L1_41" x="-350" y="-350"/><use xlink:href="#L1_41" x="0" y="-350"/><use xlink:href="#L1_41" x="350" y="-350"/><use xlink:href="#L1_41" x="-350" y="0"/><use xlink:href="#L1_41" x="0" y="0"/><use xlink:href="#L1_41" x="350" y="0"/><use xlink:href="#L1_41" x="-350" y="350"/><use xlink:href="#L1_41" x="0" y="350"/><use xlink:href="#L1_41" x="350" y="350"/></pattern><rect x="0" y="0" width="100%" height="100%" fill="url(#pattern_L1_41)"/></g><g fi:class="KUsePattern"><pattern id="pattern_L1_43" width="350" height="350" patternUnits="userSpaceOnUse"><use xlink:href="#L1_43" x="-350" y="-350"/><use xlink:href="#L1_43" x="0" y="-350"/><use xlink:href="#L1_43" x="350" y="-350"/><use xlink:href="#L1_43" x="-350" y="0"/><use xlink:href="#L1_43" x="0" y="0"/><use xlink:href="#L1_43" x="350" y="0"/><use xlink:href="#L1_43" x="-350" y="350"/><use xlink:href="#L1_43" x="0" y="350"/><use xlink:href="#L1_43" x="350" y="350"/></pattern><rect x="0" y="0" width="100%" height="100%" fill="url(#pattern_L1_43)"/></g><g fi:class="KUsePattern"><pattern id="pattern_L1_44" width="350" height="350" patternUnits="userSpaceOnUse"><use xlink:href="#L1_44" x="-350" y="-350"/><use xlink:href="#L1_44" x="0" y="-350"/><use xlink:href="#L1_44" x="350" y="-350"/><use xlink:href="#L1_44" x="-350" y="0"/><use xlink:href="#L1_44" x="0" y="0"/><use xlink:href="#L1_44" x="350" y="0"/><use xlink:href="#L1_44" x="-350" y="350"/><use xlink:href="#L1_44" x="0" y="350"/><use xlink:href="#L1_44" x="350" y="350"/></pattern><rect x="0" y="0" width="100%" height="100%" fill="url(#pattern_L1_44)"/></g><g fi:class="KUsePattern"><pattern id="pattern_L1_45" width="350" height="350" patternUnits="userSpaceOnUse"><use xlink:href="#L1_45" x="-350" y="-350"/><use xlink:href="#L1_45" x="0" y="-350"/><use xlink:href="#L1_45" x="350" y="-350"/><use xlink:href="#L1_45" x="-350" y="0"/><use xlink:href="#L1_45" x="0" y="0"/><use xlink:href="#L1_45" x="350" y="0"/><use xlink:href="#L1_45" x="-350" y="350"/><use xlink:href="#L1_45" x="0" y="350"/><use xlink:href="#L1_45" x="350" y="350"/></pattern><rect x="0" y="0" width="100%" height="100%" fill="url(#pattern_L1_45)"/></g><g fi:class="KUsePattern"><pattern id="pattern_L1_46" width="350" height="350" patternUnits="userSpaceOnUse"><use xlink:href="#L1_46" x="-350" y="-350"/><use xlink:href="#L1_46" x="0" y="-350"/><use xlink:href="#L1_46" x="350" y="-350"/><use xlink:href="#L1_46" x="-350" y="0"/><use xlink:href="#L1_46" x="0" y="0"/><use xlink:href="#L1_46" x="350" y="0"/><use xlink:href="#L1_46" x="-350" y="350"/><use xlink:href="#L1_46" x="0" y="350"/><use xlink:href="#L1_46" x="350" y="350"/></pattern><rect x="0" y="0" width="100%" height="100%" fill="url(#pattern_L1_46)"/></g></svg>